<svg width="16" height="16" viewBox="0 0 16 16" fill="none" xmlns="http://www.w3.org/2000/svg">
<g clip-path="url(#clip0_19_2)">
<path d="M1.58874 7.07625C1.58874 7.07625 1.49999 10.2612 1.49999 10.7012C1.49999 11.1412 1.46124 11.5937 1.80999 11.865C2.02124 12.03 2.99499 12.7625 4.29374 13.495C5.59249 14.2275 7.32749 15.0987 7.68374 15.245C8.03999 15.3912 8.44749 15.31 8.90499 15.14C9.32374 14.985 10.26 14.5112 11.6212 13.82C12.9825 13.1287 13.6087 12.78 13.9887 12.4787C14.2762 12.2512 14.5537 11.955 14.5125 11.4312C14.47 10.9075 14.4825 9.7175 14.4412 9.215C14.3987 8.7125 14.3662 6.87375 14.3662 6.87375L15.4862 4.8175C15.4862 4.8175 15.4587 4.38875 15.3612 4.12375C15.2162 3.72875 14.9475 3.51625 14.9475 3.51625L6.11374 1.9675C6.11374 1.9675 1.60499 3.0325 1.35499 3.1775C1.10499 3.3225 0.456236 3.86125 0.473736 4.82125C0.499986 6.2 1.58874 7.07625 1.58874 7.07625Z" fill="#E07F14"/>
<path d="M2.17374 6.88625C2.17374 6.88625 2.00749 10.555 2.09624 11.0838C2.16999 11.5263 3.52124 12.315 4.50624 12.8775C5.39374 13.385 7.27499 14.1813 7.53249 14.3038C7.78999 14.4263 7.91249 14.195 7.91249 13.9913C7.91249 13.7875 7.92624 9.38 7.92624 9.38C7.92624 9.38 9.07124 9.17625 9.28749 8.15875C9.50374 7.14125 8.34124 5.53125 5.22624 4.32125C2.01124 3.075 1.06874 3.79875 1.03124 4.69625C0.977489 6.02625 2.17374 6.88625 2.17374 6.88625Z" fill="#FFEBCA"/>
<path d="M10.1825 7.14125C10.1825 7.14125 10.545 8.4175 9.87624 9.12375C9.19874 9.83875 8.62874 9.965 8.62874 9.965C8.62874 9.965 8.58249 10.5413 8.60999 10.6088C8.67374 10.7675 10.6762 9.95125 11.9375 9.4225L14.3925 8.3925C14.3925 8.3925 14.3512 7.76875 14.3925 7.7825C14.4337 7.79625 15.0837 7.15875 15.315 6.33125C15.545 5.50375 15.4875 4.82125 15.4875 4.82125C15.4875 4.82125 13.4087 5.68875 12.685 6.01875C11.9925 6.33375 10.4975 6.96875 10.1825 7.14125Z" fill="#AC5811"/>
<path d="M9.6175 6.09625C9.7 6.18625 15.1938 3.79375 15.1938 3.79375C15.1938 3.79375 13.3225 0.850005 8.61625 0.770005C3.8025 0.687505 1.0775 3.28625 1.02 3.44375C0.975 3.56625 1.89 2.37 4.955 3.36C8.02 4.35 9.165 5.60625 9.6175 6.09625Z" fill="#F5B03E"/>
</g>
<defs>
<clipPath id="clip0_19_2">
<rect width="16" height="16" fill="white"/>
</clipPath>
</defs>
</svg>
